<?xml version="1.0" standalone="no"?>
<!DOCTYPE svg PUBLIC "-//W3C//DTD SVG 20010904//EN"
 "http://www.w3.org/TR/2001/REC-SVG-20010904/DTD/svg10.dtd">
<svg version="1.0" xmlns="http://www.w3.org/2000/svg"
 width="903.000000pt" height="152.000000pt" viewBox="0 0 903.000000 152.000000"
 preserveAspectRatio="xMidYMid meet">
<metadata>
Created by potrace 1.13, written by Peter Selinger 2001-2015
</metadata>
<g transform="translate(0.000000,152.000000) scale(0.100000,-0.100000)"
fill="#000000" stroke="none">
<path d="M0 1143 c0 -204 4 -395 10 -424 14 -74 79 -203 137 -268 26 -30 83
-81 126 -113 93 -68 255 -151 296 -151 38 0 166 61 267 129 151 100 264 251
293 392 7 33 11 196 11 429 l0 376 -32 -27 c-18 -15 -62 -41 -98 -59 -54 -26
-79 -32 -147 -35 -103 -5 -166 15 -239 75 l-55 44 -45 -40 c-69 -60 -140 -83
-244 -79 -71 3 -95 8 -150 35 -36 18 -80 44 -97 59 l-33 27 0 -370z m667 233
c126 -64 231 -58 411 21 19 8 17 -600 -3 -685 -19 -79 -47 -134 -79 -156 -49
-31 -145 -49 -233 -43 -46 3 -83 5 -83 3 0 -2 10 -25 21 -51 32 -73 22 -119
-35 -172 -66 -60 -91 -62 -183 -19 -233 111 -390 282 -422 460 -11 60 -16 666
-6 666 3 0 24 -9 45 -20 136 -70 307 -59 426 25 48 34 49 34 69 16 11 -11 43
-31 72 -45z"/>
<path d="M180 1080 l0 -40 190 0 190 0 0 40 0 40 -190 0 -190 0 0 -40z"/>
<path d="M180 925 l0 -45 385 0 385 0 0 45 0 45 -385 0 -385 0 0 -45z"/>
<path d="M180 780 l0 -40 385 0 385 0 0 40 0 40 -385 0 -385 0 0 -40z"/>
<path d="M3630 1202 c-54 -14 -66 -21 -68 -39 -3 -20 1 -23 26 -23 66 0 62 26
62 -396 l0 -383 -40 -12 c-28 -9 -40 -18 -40 -31 0 -17 11 -18 135 -18 127 0
135 1 135 20 0 14 -11 22 -40 31 l-40 12 0 119 c0 65 4 118 8 118 16 0 40 -27
97 -110 32 -47 78 -109 102 -137 l45 -53 79 0 c92 0 105 16 40 50 -36 18 -145
143 -227 262 l-26 37 87 100 c70 79 96 103 129 113 24 8 42 20 44 31 3 15 -8
17 -117 17 -100 0 -121 -3 -121 -15 0 -8 14 -22 30 -30 35 -18 40 -8 -65 -138
-108 -134 -105 -140 -105 203 l0 290 -32 -1 c-18 0 -62 -8 -98 -17z"/>
<path d="M7380 1209 c-88 -27 -131 -91 -138 -210 l-4 -75 -42 -15 c-29 -10
-42 -20 -44 -36 -3 -21 1 -23 42 -23 l46 0 0 -243 0 -244 -40 -12 c-29 -9 -40
-17 -40 -31 0 -19 8 -20 156 -20 143 0 155 1 152 17 -2 13 -21 23 -61 33 l-57
14 0 243 0 243 70 0 70 0 0 30 0 30 -70 0 -70 0 0 58 c1 129 34 192 101 195
30 2 36 -2 61 -48 39 -73 59 -68 77 18 8 37 11 70 7 74 -11 12 -179 13 -216 2z"/>
<path d="M4822 1174 c-16 -11 -22 -25 -22 -53 0 -49 24 -71 77 -71 50 0 73 23
73 73 0 42 -28 67 -75 67 -17 0 -41 -7 -53 -16z"/>
<path d="M8832 1174 c-16 -11 -22 -25 -22 -53 0 -49 24 -71 77 -71 50 0 73 23
73 73 0 42 -28 67 -75 67 -17 0 -41 -7 -53 -16z"/>
<path d="M1668 1156 c-96 -37 -143 -105 -143 -206 1 -112 54 -181 198 -255
168 -87 197 -116 197 -197 0 -94 -79 -154 -192 -146 -75 6 -89 20 -118 126
-17 63 -27 82 -40 82 -10 0 -20 -10 -23 -22 -13 -54 -28 -181 -23 -193 2 -7
31 -23 63 -36 73 -28 223 -31 291 -6 95 36 149 104 159 201 12 113 -54 199
-218 285 -149 79 -179 112 -179 197 0 39 5 51 34 80 33 33 37 34 108 34 114 0
112 1 138 -96 18 -66 27 -84 41 -84 21 0 24 10 40 118 6 48 8 87 3 91 -38 34
-269 52 -336 27z"/>
<path d="M4348 1052 c-25 -15 -28 -23 -28 -69 l0 -52 -50 -22 c-35 -15 -50
-27 -50 -40 0 -16 8 -19 50 -19 l50 0 0 -231 c0 -186 3 -237 15 -263 39 -82
166 -96 268 -30 57 37 48 47 -36 39 -69 -7 -75 -5 -103 18 l-29 25 -3 221 -3
221 90 0 91 0 0 30 0 30 -90 0 -90 0 0 80 0 80 -27 -1 c-16 0 -40 -8 -55 -17z"/>
<path d="M2360 917 c-30 -8 -72 -21 -94 -30 -38 -17 -39 -18 -33 -60 21 -141
50 -155 93 -42 28 74 29 74 71 81 96 14 135 -27 137 -143 l1 -78 -88 -8 c-105
-9 -183 -36 -222 -77 -22 -23 -29 -41 -33 -84 -6 -71 2 -98 38 -140 35 -39
108 -62 162 -51 50 10 105 51 127 92 l20 38 1 -31 c0 -17 3 -46 6 -63 6 -27
11 -31 37 -31 43 0 138 32 145 48 6 18 -15 32 -50 32 -34 0 -31 -16 -32 245
-1 181 -3 203 -21 234 -39 67 -150 95 -265 68z m180 -390 c0 -50 -5 -70 -25
-100 -43 -62 -99 -81 -155 -52 -49 25 -64 119 -27 169 18 25 84 45 150 46 l57
0 0 -63z"/>
<path d="M2915 910 c-38 -10 -73 -19 -77 -19 -5 -1 -8 -10 -8 -20 0 -21 19
-31 56 -31 l24 0 0 -240 0 -239 -40 -12 c-28 -9 -40 -18 -40 -31 0 -17 11 -18
135 -18 116 0 135 2 135 16 0 9 -17 23 -40 32 l-40 17 0 178 c0 190 2 201 53
254 77 82 189 62 217 -38 6 -19 10 -116 10 -216 l0 -183 -35 -14 c-19 -8 -35
-22 -35 -30 0 -14 20 -16 135 -16 116 0 135 2 135 16 0 9 -17 22 -39 31 l-39
15 -4 207 c-3 168 -7 213 -22 246 -27 63 -62 93 -123 105 -97 21 -168 -5 -223
-81 l-30 -42 0 66 c0 78 3 76 -105 47z"/>
<path d="M4825 910 c-38 -10 -73 -19 -77 -19 -5 -1 -8 -10 -8 -20 0 -21 19
-31 56 -31 l24 0 0 -240 0 -239 -40 -12 c-28 -9 -40 -18 -40 -31 0 -17 11 -18
135 -18 124 0 135 1 135 18 0 13 -12 22 -40 31 l-40 12 0 284 c0 326 12 296
-105 265z"/>
<path d="M5340 915 c-129 -36 -200 -146 -200 -310 0 -174 77 -286 218 -316 75
-16 168 0 231 38 118 73 163 271 100 439 -47 124 -201 190 -349 149z m159 -73
c69 -50 97 -143 88 -285 -6 -99 -32 -165 -73 -192 -71 -46 -163 -19 -210 61
-28 47 -29 54 -29 184 0 125 2 138 25 180 43 78 133 101 199 52z"/>
<path d="M5915 910 c-38 -10 -73 -19 -77 -19 -5 -1 -8 -10 -8 -20 0 -21 19
-31 56 -31 l24 0 0 -240 0 -239 -40 -12 c-28 -9 -40 -18 -40 -31 0 -17 11 -18
135 -18 116 0 135 2 135 16 0 9 -17 23 -40 32 l-40 17 0 178 c0 190 2 201 53
254 77 82 189 62 217 -38 6 -19 10 -116 10 -216 l0 -183 -35 -14 c-19 -8 -35
-22 -35 -30 0 -14 20 -16 135 -16 116 0 135 2 135 16 0 9 -17 22 -39 31 l-39
15 -4 207 c-3 168 -7 213 -22 246 -27 63 -62 93 -123 105 -97 21 -168 -5 -223
-81 l-30 -42 0 66 c0 78 3 76 -105 47z"/>
<path d="M6748 921 c-48 -16 -98 -52 -113 -81 -8 -16 -15 -51 -15 -79 0 -70
40 -118 155 -188 118 -71 130 -83 130 -134 0 -49 -34 -84 -92 -95 -60 -11 -82
3 -112 76 -44 102 -72 85 -94 -57 l-7 -41 48 -16 c116 -38 228 -28 302 25 52
38 74 87 67 152 -6 63 -42 101 -164 173 -100 59 -123 83 -123 127 0 38 49 87
87 87 59 0 72 -10 94 -71 16 -43 27 -59 40 -59 19 0 30 31 44 117 7 42 6 42
-32 52 -54 15 -183 22 -215 12z"/>
<path d="M7673 908 c-56 -15 -73 -24 -73 -38 0 -20 19 -30 56 -30 l24 0 0
-238 0 -238 -42 -14 c-25 -9 -44 -22 -46 -32 -3 -17 9 -18 148 -18 139 0 151
1 148 18 -2 10 -21 23 -50 32 l-48 15 0 184 c0 169 2 186 21 217 29 47 46 54
133 54 86 0 90 6 61 76 -14 35 -17 36 -52 29 -47 -8 -105 -45 -135 -86 l-23
-31 -5 59 c-6 70 -11 71 -117 41z"/>
<path d="M8297 916 c-66 -18 -117 -62 -152 -131 -28 -56 -30 -67 -30 -175 0
-100 3 -122 24 -168 30 -66 95 -125 158 -143 103 -30 221 -8 278 51 41 43 23
53 -50 28 -144 -49 -267 23 -282 165 l-6 57 184 2 184 3 3 75 c4 93 -15 146
-67 193 -58 53 -148 68 -244 43z m159 -77 c28 -26 44 -76 44 -136 l0 -43 -131
0 -132 0 7 51 c10 71 40 127 79 145 42 19 103 11 133 -17z"/>
<path d="M8835 910 c-38 -10 -73 -19 -77 -19 -5 -1 -8 -10 -8 -20 0 -21 19
-31 56 -31 l24 0 0 -240 0 -239 -40 -12 c-28 -9 -40 -18 -40 -31 0 -17 11 -18
135 -18 124 0 135 1 135 18 0 13 -12 22 -40 31 l-40 12 0 284 c0 326 12 296
-105 265z"/>
<path d="M0 311 l0 -262 25 -24 24 -25 521 0 521 0 24 25 25 24 0 258 0 258
-37 -64 c-49 -81 -123 -163 -207 -226 -78 -59 -85 -47 84 -137 63 -33 117 -62
119 -64 7 -6 -21 -34 -34 -34 -8 0 -76 34 -153 75 l-140 75 -93 -45 c-51 -25
-100 -45 -108 -45 -9 0 -59 21 -113 46 l-96 47 -138 -77 c-75 -42 -142 -76
-149 -76 -7 0 -18 7 -26 16 -15 18 -28 9 139 101 l125 68 -28 20 c-120 86
-207 180 -259 279 l-26 49 0 -262z"/>
</g>
</svg>
