<?xml version="1.0" standalone="no"?>
<!DOCTYPE svg PUBLIC "-//W3C//DTD SVG 20010904//EN"
 "http://www.w3.org/TR/2001/REC-SVG-20010904/DTD/svg10.dtd">
<svg version="1.0" xmlns="http://www.w3.org/2000/svg"
 width="1041.000000pt" height="1040.000000pt" viewBox="0 0 1041.000000 1040.000000"
 preserveAspectRatio="xMidYMid meet">
<metadata>
Created by potrace 1.13, written by Peter Selinger 2001-2015
</metadata>
<g transform="translate(0.000000,1040.000000) scale(0.100000,-0.100000)"
fill="#000000" stroke="none">
<path d="M5165 8088 c-21 -27 -73 -77 -116 -111 -287 -230 -656 -288 -1023
-160 -169 59 -280 124 -415 243 l-82 72 4 -1119 c3 -1090 3 -1120 24 -1208
114 -493 432 -901 965 -1235 202 -126 615 -320 683 -320 40 0 245 85 425 176
290 147 506 295 701 482 283 271 444 543 521 880 22 96 22 103 25 1220 l4
1123 -90 -78 c-217 -189 -460 -288 -736 -300 -301 -13 -550 82 -756 288 l-97
96 -37 -49z m127 -251 c376 -284 866 -319 1313 -95 44 22 84 44 90 49 36 35
36 42 32 -928 -4 -903 -4 -942 -24 -1033 -43 -198 -134 -406 -200 -457 -90
-71 -210 -120 -360 -149 -145 -29 -420 -23 -612 13 l-34 6 30 -44 c142 -207
154 -415 32 -569 -66 -83 -184 -162 -306 -205 l-52 -18 -93 38 c-411 169 -807
435 -1033 695 -201 230 -307 432 -367 698 -21 95 -22 114 -25 1030 -2 512 -1
932 3 932 4 0 51 -22 105 -50 118 -61 273 -114 394 -135 106 -19 310 -21 415
-5 180 29 397 125 530 235 36 29 68 54 72 54 3 1 44 -27 90 -62z"/>
<path d="M4060 6855 l0 -125 565 0 565 0 0 125 0 125 -565 0 -565 0 0 -125z"/>
<path d="M4060 6405 l0 -125 1125 0 1125 0 0 125 0 125 -1125 0 -1125 0 0
-125z"/>
<path d="M4060 5985 l0 -125 1125 0 1125 0 0 125 0 125 -1125 0 -1125 0 0
-125z"/>
<path d="M3530 4660 c0 -546 3 -743 12 -774 16 -55 99 -138 154 -154 60 -17
2958 -17 3018 0 55 16 138 99 154 154 9 31 12 227 12 769 l0 728 -48 -99
c-132 -270 -369 -541 -666 -763 -72 -54 -150 -111 -174 -126 l-43 -28 68 -37
c37 -20 219 -116 404 -213 351 -185 349 -184 316 -227 -22 -29 -61 -50 -91
-50 -19 0 -175 77 -439 216 l-409 215 -192 -95 c-105 -52 -238 -113 -296 -136
l-106 -42 -114 47 c-105 42 -380 176 -456 220 l-31 19 -406 -222 c-224 -122
-416 -222 -428 -222 -37 0 -87 31 -103 63 -8 18 -12 35 -8 38 4 4 183 102 397
219 215 117 391 213 392 215 2 1 -38 30 -87 64 -143 99 -295 228 -420 357
-169 173 -276 321 -364 504 l-46 94 0 -734z"/>
<path d="M3545 3379 c-112 -25 -125 -31 -125 -55 0 -20 5 -23 48 -26 l47 -3 0
-409 0 -409 -42 -14 c-31 -11 -43 -20 -43 -34 0 -18 9 -19 145 -19 137 0 145
1 145 20 0 14 -11 22 -40 31 l-40 12 0 128 c0 116 1 127 18 122 9 -2 43 -44
75 -92 32 -47 82 -116 111 -151 l52 -65 87 -3 c81 -3 87 -1 87 17 0 13 -11 23
-36 31 -33 11 -111 99 -248 282 l-27 37 95 108 c83 95 101 110 141 121 34 9
45 17 45 32 0 19 -7 20 -125 20 -119 0 -125 -1 -125 -20 0 -14 11 -25 31 -34
l30 -13 -62 -79 c-79 -101 -120 -144 -136 -144 -10 0 -13 65 -15 308 l-3 307
-25 2 c-14 1 -43 -3 -65 -8z"/>
<path d="M7478 3374 c-94 -29 -148 -117 -148 -243 l0 -56 -50 -22 c-37 -16
-50 -27 -50 -42 0 -18 6 -21 50 -21 l50 0 0 -259 0 -258 -32 -7 c-36 -7 -58
-23 -58 -42 0 -11 32 -14 165 -14 154 0 165 1 165 18 0 19 -54 42 -99 42 -21
0 -21 1 -21 260 l0 260 75 0 75 0 0 35 0 35 -75 0 -75 0 0 73 c0 132 35 197
105 197 33 0 37 -4 62 -55 17 -35 33 -55 44 -55 21 0 37 45 41 110 3 42 1 45
-27 51 -52 12 -148 8 -197 -7z"/>
<path d="M4774 3348 c-22 -10 -44 -47 -44 -73 0 -8 11 -26 24 -42 32 -37 99
-39 127 -4 58 72 -22 161 -107 119z"/>
<path d="M9044 3348 c-22 -10 -44 -47 -44 -73 0 -8 11 -26 24 -42 32 -37 99
-39 127 -4 58 72 -22 161 -107 119z"/>
<path d="M1441 3330 c-119 -25 -191 -111 -191 -228 0 -121 61 -194 237 -285
161 -84 206 -136 188 -219 -18 -82 -86 -128 -189 -128 -98 0 -112 10 -137 94
-11 39 -24 82 -28 96 -4 14 -16 26 -28 28 -19 3 -22 -5 -32 -80 -21 -155 -22
-150 27 -175 68 -34 173 -48 261 -34 126 19 202 74 236 170 49 140 -17 252
-205 351 -54 28 -116 65 -138 81 -67 49 -89 125 -57 193 23 49 61 66 147 66
113 0 112 1 142 -101 21 -70 31 -89 45 -89 11 0 21 9 24 23 11 42 30 197 26
202 -3 2 -32 11 -64 20 -76 19 -207 27 -264 15z"/>
<path d="M4258 3208 c-37 -21 -38 -24 -38 -79 0 -54 -2 -57 -27 -64 -43 -10
-73 -33 -73 -55 0 -17 7 -20 49 -20 l50 0 3 -247 c3 -222 5 -251 22 -279 45
-75 147 -91 251 -39 33 17 61 37 63 46 3 14 -7 15 -72 11 -90 -6 -120 9 -135
65 -6 21 -11 129 -11 240 l0 202 98 3 97 3 3 33 3 32 -100 0 -101 0 0 85 c0
82 -1 85 -22 85 -13 0 -40 -10 -60 -22z"/>
<path d="M2150 3070 c-52 -9 -129 -38 -147 -54 -10 -9 -9 -26 2 -79 17 -79 20
-87 44 -87 13 0 26 21 48 78 l30 77 61 3 c34 2 71 -2 83 -8 31 -17 49 -71 49
-149 l0 -70 -47 -6 c-245 -30 -309 -64 -321 -170 -7 -67 6 -112 44 -155 80
-89 248 -68 304 37 21 39 30 33 30 -18 0 -20 3 -44 6 -53 9 -22 57 -20 132 5
47 16 62 25 62 40 0 13 -7 19 -22 19 -13 0 -33 3 -45 6 -23 6 -23 7 -23 223 0
119 -4 231 -10 250 -11 39 -43 77 -83 97 -34 18 -137 26 -197 14z m170 -425
c0 -74 0 -75 -43 -120 -40 -41 -48 -45 -91 -45 -39 0 -53 5 -77 29 -23 24 -29
38 -29 75 0 99 46 133 183 135 l57 1 0 -75z"/>
<path d="M2715 3057 c-67 -19 -81 -26 -83 -44 -3 -20 1 -23 30 -23 60 0 59 6
56 -265 l-3 -248 -42 -15 c-31 -10 -43 -19 -43 -33 0 -18 9 -19 145 -19 116 0
145 3 145 14 0 18 -19 33 -53 41 l-27 7 0 196 c0 190 1 196 25 238 33 56 79
84 139 84 107 0 126 -44 133 -313 l6 -197 -41 -17 c-28 -11 -42 -22 -42 -35 0
-17 10 -18 140 -18 129 0 140 1 140 18 0 18 -37 42 -64 42 -11 0 -15 45 -18
223 -4 206 -6 226 -27 275 -28 63 -61 89 -135 103 -95 20 -197 -23 -236 -97
-15 -27 -15 -27 -20 37 -6 77 -8 78 -125 46z"/>
<path d="M4757 3056 c-42 -13 -80 -26 -83 -29 -13 -13 7 -37 30 -37 58 0 56
10 56 -266 0 -223 -2 -254 -15 -254 -26 0 -75 -30 -75 -45 0 -13 25 -15 151
-15 138 0 150 1 147 18 -2 10 -21 23 -45 32 l-43 14 -2 301 c-3 348 9 320
-121 281z"/>
<path d="M5312 3066 c-149 -38 -233 -178 -219 -366 8 -108 31 -166 91 -225 59
-60 116 -80 216 -80 135 1 236 67 281 183 30 77 32 221 5 305 -48 147 -208
225 -374 183z m169 -79 c46 -31 76 -88 90 -171 22 -132 -7 -273 -67 -326 -30
-26 -43 -30 -90 -30 -30 0 -68 7 -84 15 -76 39 -116 152 -107 300 6 107 27
164 73 205 30 26 42 30 93 30 44 0 66 -6 92 -23z"/>
<path d="M5915 3057 c-67 -19 -81 -26 -83 -44 -3 -20 1 -23 30 -23 60 0 59 6
56 -265 l-3 -248 -42 -15 c-31 -10 -43 -19 -43 -33 0 -18 9 -19 145 -19 116 0
145 3 145 14 0 18 -19 33 -53 41 l-27 7 0 196 c0 190 1 196 25 238 33 56 79
84 139 84 107 0 126 -44 133 -313 l6 -197 -41 -17 c-28 -11 -42 -22 -42 -35 0
-17 10 -18 140 -18 129 0 140 1 140 18 0 18 -37 42 -64 42 -11 0 -15 45 -18
223 -4 206 -6 226 -27 275 -28 63 -61 89 -135 103 -95 20 -197 -23 -236 -97
-15 -27 -15 -27 -20 37 -6 77 -8 78 -125 46z"/>
<path d="M6803 3066 c-117 -38 -162 -130 -112 -233 25 -51 66 -87 161 -139
115 -63 148 -116 113 -183 -19 -37 -60 -53 -124 -49 l-53 3 -30 73 c-36 85
-58 94 -77 32 -7 -23 -15 -63 -18 -90 l-6 -49 59 -17 c79 -24 196 -24 256 -1
89 34 139 117 124 205 -10 64 -39 91 -221 202 -87 53 -106 104 -59 159 23 28
31 31 84 31 l58 0 25 -67 c31 -86 55 -92 73 -19 7 27 14 65 16 85 3 34 1 37
-35 48 -60 20 -186 25 -234 9z"/>
<path d="M7802 3060 c-87 -23 -92 -26 -92 -51 0 -13 7 -19 24 -19 58 0 56 10
56 -264 l0 -253 -40 -12 c-29 -9 -40 -17 -40 -31 0 -19 8 -20 155 -20 125 0
155 3 155 14 0 20 -22 35 -66 44 l-39 8 -3 187 c-3 199 1 220 51 275 18 20 30
22 109 22 88 0 88 0 88 25 0 14 -7 42 -15 62 -14 33 -17 35 -51 30 -52 -9
-121 -53 -154 -99 l-30 -41 0 71 c0 83 5 81 -108 52z"/>
<path d="M8458 3067 c-144 -41 -220 -178 -205 -373 13 -173 109 -280 268 -299
101 -12 249 50 249 106 0 23 -8 24 -51 2 -19 -10 -65 -19 -105 -21 -81 -5
-133 15 -177 68 -27 31 -57 115 -57 157 l0 23 200 0 199 0 7 36 c16 89 -14
201 -68 251 -54 51 -174 74 -260 50z m150 -73 c35 -24 54 -71 55 -138 l2 -61
-142 -3 -142 -3 6 38 c11 80 26 118 58 150 29 29 39 33 87 33 32 0 62 -6 76
-16z"/>
<path d="M9027 3056 c-42 -13 -80 -26 -83 -29 -13 -13 7 -37 30 -37 58 0 56
10 56 -266 0 -223 -2 -254 -15 -254 -26 0 -75 -30 -75 -45 0 -13 25 -15 151
-15 138 0 150 1 147 18 -2 10 -21 23 -45 32 l-43 14 -2 301 c-3 348 9 320
-121 281z"/>
</g>
</svg>
